# xmcd
#
# Track frame offsets: 
#        150
#        18313
#        36282
#        49169
#        63596
#        79434
#        96663
#        106750
#        126870
#        139212
#        160273
#        179864
#        193719
#        211230
#        231374
#        245924
#        263934
#        279666
#        296038
#        309272
#        323033
#
# Disc length: 4503 seconds
#
# Revision: 3
# Processed by: cddbd v1.5.2PL0 Copyright (c) Steve Scherf et al.
# Submitted via: ExactAudioCopyFreeDBPlugin 1.0
#
DISCID=4c119515
DTITLE=Linda Ronstadt - The Linda Ronstadt Box Set - CD2
DYEAR=1999
DGENRE=Pop
TTITLE0=Blue Bayou
TTITLE1=Try Me Again
TTITLE2=Heat Wave
TTITLE3=Heart Like A Wheel
TTITLE4=It Doesn't Matter Anymore
TTITLE5=You're No Good
TTITLE6=When Will I Be Loved
TTITLE7=Long Long Time
TTITLE8=Different Drum
TTITLE9=Little Girl Blue
TTITLE10=I Get Along Without You Very Well
TTITLE11=My Funny Valentine
TTITLE12=When You Wish Upon A Star
TTITLE13=It Never Entered My Mind
TTITLE14=Skylark
TTITLE15=What's New
TTITLE16=Quiereme Mucho
TTITLE17=Frenesi
TTITLE18=Mentira Salome
TTITLE19=La Mariquita
TTITLE20=El Crucifijo de Piedra
EXTD=YEAR: 1999
EXTT0=
EXTT1=
EXTT2=
EXTT3=
EXTT4=
EXTT5=
EXTT6=
EXTT7=
EXTT8=
EXTT9=
EXTT10=
EXTT11=
EXTT12=
EXTT13=
EXTT14=
EXTT15=
EXTT16=
EXTT17=
EXTT18=
EXTT19=
EXTT20=
PLAYORDER=
